# xmcd
#
# Track frame offsets: 
#        150
#        21302
#        38945
#        56197
#        72540
#        88175
#        108027
#        127205
#        139557
#        158135
#
# Disc length: 2300 seconds
#
# Revision: 2
# Processed by: cddbd v1.5.2PL0 Copyright (c) Steve Scherf et al.
# Submitted via: ExactAudioCopyFreeDBPlugin 1.0
#
DISCID=9008fa0a
DTITLE=Julio Iglesias - La Carretera
DYEAR=1995
DGENRE=Pop
TTITLE0=La Carretera
TTITLE1=Cosas De La Vida
TTITLE2=Baila Morena
TTITLE3=Derroche
TTITLE4=El Ultimo Verano
TTITLE5=Agua Dulce, Agua Sala
TTITLE6=Sin Excusas Ni Rodeos
TTITLE7=Mal De Amores
TTITLE8=Rumbas (Medley)
TTITLE9=Vuela Alto
EXTD=
EXTT0=
EXTT1=
EXTT2=
EXTT3=
EXTT4=
EXTT5=
EXTT6=
EXTT7=
EXTT8=
EXTT9=
PLAYORDER=
